# xmcd CD database file
#
# Track frame offsets:
#	150
#	29492
#	51571
#	76218
#	103343
#	130789
#	154192
#	172532
#	197799
#
# Disc length: 2897 seconds
#
# Revision: 0
# Processed by: cddbd v1.4PL0 Copyright (c) Steve Scherf et al.
# Submitted via: CDex 1.50
#
DISCID=720b4f09
DTITLE=Jake Langley - Non Fiction
DYEAR=2002
DGENRE=Jazz
TTITLE0=What 'Chu Talkin' 'Bout Willis?
TTITLE1=Dot Com
TTITLE2=Homefry
TTITLE3=Modeswing
TTITLE4=Squeeze
TTITLE5=Aquarian Sunrise
TTITLE6=The Garage
TTITLE7=Malibu Classic
TTITLE8=Juan Carlos
EXTD=YEAR: 2002
EXTT0=
EXTT1=
EXTT2=
EXTT3=
EXTT4=
EXTT5=
EXTT6=
EXTT7=
EXTT8=
PLAYORDER=
